<?xml version="1.0" standalone="no"?>
<!DOCTYPE svg PUBLIC "-//W3C//DTD SVG 20010904//EN"
 "http://www.w3.org/TR/2001/REC-SVG-20010904/DTD/svg10.dtd">
<svg version="1.0" xmlns="http://www.w3.org/2000/svg"
 width="844.000000pt" height="361.000000pt" viewBox="0 0 844.000000 361.000000"
 preserveAspectRatio="xMidYMid meet">
<metadata>
Created by potrace 1.16, written by Peter Selinger 2001-2019
</metadata>
<g transform="translate(0.000000,361.000000) scale(0.100000,-0.100000)"
fill="#1e3a8a" stroke="none">
<path d="M2415 3599 c-371 -23 -752 -99 -1131 -224 -215 -71 -331 -119 -517
-211 -577 -288 -867 -648 -738 -921 47 -98 133 -173 250 -216 81 -29 281 -29
365 2 71 25 168 79 216 119 50 43 33 58 -73 64 -178 9 -267 112 -223 259 96
330 665 677 1300 794 72 13 211 29 309 36 362 25 609 -29 751 -165 61 -59 88
-106 111 -196 14 -56 15 -78 5 -165 -26 -219 -129 -444 -293 -637 -187 -219
-513 -411 -838 -492 -115 -29 -283 -56 -287 -46 -9 21 315 932 467 1313 39 98
71 191 71 207 0 39 -23 50 -111 50 -205 0 -523 -96 -574 -173 -15 -23 -160
-392 -252 -642 -312 -847 -556 -1568 -635 -1875 -77 -300 -62 -388 77 -452 45
-21 65 -23 195 -23 170 0 255 20 333 80 60 46 75 77 89 178 18 141 77 424 133
642 44 170 102 374 109 382 0 0 60 11 131 23 829 139 1485 515 1837 1055 139
213 208 429 202 633 -8 257 -160 445 -429 532 -131 42 -245 59 -455 68 -205
10 -249 10 -395 1z"/>
<path d="M8175 3471 c-179 -30 -309 -105 -387 -224 -191 -294 -654 -1537 -703
-1889 -5 -42 -13 -54 -73 -109 -145 -133 -272 -146 -272 -26 0 23 7 70 15 105
23 99 125 398 209 614 42 109 76 204 76 211 0 27 -28 51 -76 64 -285 77 -287
77 -499 78 -221 0 -318 -15 -494 -77 -286 -101 -526 -303 -681 -573 -72 -128
-140 -347 -140 -456 0 -32 -7 -45 -37 -74 -47 -44 -147 -95 -185 -95 -78 0
-100 56 -69 175 38 149 103 339 204 595 167 425 168 429 125 470 -32 29 -60
35 -168 34 -113 0 -237 -31 -304 -75 -50 -34 -79 -84 -176 -308 -171 -395
-270 -741 -270 -934 1 -145 37 -214 137 -264 55 -26 65 -28 188 -27 120 0 137
3 229 34 103 35 223 101 316 174 l55 43 27 -43 c73 -117 253 -181 433 -154 96
15 148 31 240 77 96 48 156 92 253 187 l82 81 0 -45 c0 -103 49 -190 130 -234
44 -24 68 -30 144 -33 186 -10 364 64 534 222 l60 55 31 -54 c36 -64 100 -116
179 -147 45 -18 84 -24 179 -27 183 -6 297 19 455 100 103 53 160 94 243 178
83 82 121 145 111 183 -10 41 -45 34 -136 -28 -103 -70 -157 -98 -249 -125
-121 -37 -207 -16 -238 58 -29 70 -5 198 101 547 153 502 356 1025 552 1422
68 137 114 241 112 254 -6 40 -46 59 -133 64 -44 2 -102 0 -130 -4z"/>
<path d="M5182 2980 c-251 -66 -421 -253 -346 -380 21 -34 86 -77 139 -91 56
-16 190 -5 253 20 164 65 312 230 312 347 0 53 -36 99 -88 114 -58 16 -189 11
-270 -10z"/>
<path d="M4170 2224 c-134 -36 -244 -107 -368 -239 -45 -47 -82 -91 -82 -96 0
-5 -4 -9 -9 -9 -5 0 4 34 21 76 63 164 48 210 -71 208 -82 -2 -155 -28 -253
-93 -131 -86 -179 -157 -269 -397 -127 -340 -259 -819 -259 -940 0 -126 49
-162 227 -163 149 -1 267 30 292 77 5 10 21 69 35 132 32 140 100 355 154 481
144 337 329 534 515 547 33 3 91 -1 129 -8 64 -12 73 -12 105 5 78 43 172 199
181 302 4 57 3 63 -21 86 -15 13 -44 29 -65 35 -54 16 -195 14 -262 -4z"/>
</g>
</svg>
